<svg xmlns="http://www.w3.org/2000/svg" viewBox="0 0 513.4 121.42"><defs><style>.cls-1,.cls-2{fill:#fff;}.cls-2{font-size:60px;font-family:Orbitron-Black, Orbitron;font-weight:800;letter-spacing:0.12em;}.cls-3{letter-spacing:0.14em;}</style></defs><g id="Layer_2" data-name="Layer 2"><g id="Layer_7" data-name="Layer 7"><path class="cls-1" d="M104.73,93.84,54.48,121.08a2.81,2.81,0,0,1-2.7,0L1.49,93.82a2.84,2.84,0,0,1,0-5l12.8-6.93a2.84,2.84,0,0,1,2.7,0l34.77,18.85a2.89,2.89,0,0,0,2.71,0L89.22,81.92a2.83,2.83,0,0,1,2.71,0l12.8,6.93A2.84,2.84,0,0,1,104.73,93.84Z"/><path class="cls-1" d="M63.07,25.24h0a.59.59,0,0,1,.3-.51l6.14-3.32a4.51,4.51,0,0,1,2.18-.56h.07a4.62,4.62,0,0,1,2.21.56l16.09,8.71a.94.94,0,0,0,.89,0l7.43-4a.93.93,0,0,0,0-1.64L81.57,15.35a.94.94,0,0,0-.89,0L74,19a4.51,4.51,0,0,1-2.18.56h0A4.52,4.52,0,0,1,69.55,19L54,10.56a.6.6,0,0,1-.29-.51h0a.57.57,0,0,1,.3-.51l7-3.79a.89.89,0,0,0,0-1.56L53.44.11a.86.86,0,0,0-.85,0L45.08,4.18a.88.88,0,0,0,0,1.56l7,3.79a.59.59,0,0,1,.3.51h0a.58.58,0,0,1-.3.5l-6.85,3.72a.93.93,0,0,0,0,1.63l16.27,8.82a.58.58,0,0,1,.3.5v0a.59.59,0,0,1-.3.51L39,38a2.84,2.84,0,0,0,0,5l12.81,6.94a2.81,2.81,0,0,0,2.7,0l6.68-3.61a2.81,2.81,0,0,1,2.7,0l3.42,1.85a2.84,2.84,0,0,1,0,5l-12.8,6.94a2.81,2.81,0,0,1-2.7,0L17,41.2a2.84,2.84,0,0,0-2.7,0L1.49,48.13a2.83,2.83,0,0,0,0,5C18,62.06,35.44,71.53,51.79,80.38a2.81,2.81,0,0,0,2.7,0l50.25-27.23a2.84,2.84,0,0,0,0-5L63.37,25.74A.58.58,0,0,1,63.07,25.24Z"/><text class="cls-2" transform="translate(141.1 79.63)">B<tspan class="cls-3" x="57.12" y="0">I</tspan><tspan x="78.72" y="0">TEIGEN</tspan></text></g></g></svg>